HIERARCHY
ROOT root
{
	OFFSET	0	13.1	24.9
	CHANNELS 6  Xposition Yposition Zposition Xrotation Yrotation Zrotation
	JOINT spine_1
	{
		OFFSET	0	9.99999	0
		CHANNELS 3  Xrotation Yrotation Zrotation
		JOINT spine_2
		{
			OFFSET	0	112	-10
			CHANNELS 3  Xrotation Yrotation Zrotation
			JOINT spine_3
			{
				OFFSET	0	206.5	19.3
				CHANNELS 3  Xrotation Yrotation Zrotation
				JOINT spine_4
				{
					OFFSET	0	110.4	14.6
					CHANNELS 3  Xrotation Yrotation Zrotation
					JOINT neck_1
					{
						OFFSET	0	71.8	-50.3
						CHANNELS 3  Xrotation Yrotation Zrotation
						JOINT neck_2
						{
							OFFSET	0	86.2	-25.8
							CHANNELS 3  Xrotation Yrotation Zrotation
							JOINT head_ee
							{
								OFFSET	0	179.8	-8.7
								CHANNELS 3  Xrotation Yrotation Zrotation
								End Site
								{
									OFFSET	1	0	0
								}
							}
						}
					}
					JOINT left_clavicle
					{
						OFFSET	-43.2	22.4	-70.8
						CHANNELS 3  Xrotation Yrotation Zrotation
						JOINT left_shoulder
						{
							OFFSET	-93.9	-5.79999	48.7
							CHANNELS 3  Xrotation Yrotation Zrotation
							JOINT left_elbow
							{
								OFFSET	-291.4	-30.8	15.2
								CHANNELS 3  Xrotation Yrotation Zrotation
								JOINT left_lowarm_twist
								{
									OFFSET	-110.7	-3.89999	13.6
									CHANNELS 3  Xrotation Yrotation Zrotation
									JOINT left_hand
									{
										OFFSET	-110.7	-3.89999	13.6
										CHANNELS 3  Xrotation Yrotation Zrotation
										JOINT left_ee
										{
											OFFSET	-80.8	-5.10001	12.1
											CHANNELS 3  Xrotation Yrotation Zrotation
											End Site
											{
												OFFSET	1	0	0
											}
										}
									}
								}
							}
						}
					}
					JOINT right_clavicle
					{
						OFFSET	43.2	22.4	-70.8
						CHANNELS 3  Xrotation Yrotation Zrotation
						JOINT right_shoulder
						{
							OFFSET	93.9	-5.79999	48.7
							CHANNELS 3  Xrotation Yrotation Zrotation
							JOINT right_elbow
							{
								OFFSET	291.4	-30.8	15.2
								CHANNELS 3  Xrotation Yrotation Zrotation
								JOINT right_lowarm_twist
								{
									OFFSET	110.7	-3.89999	13.6
									CHANNELS 3  Xrotation Yrotation Zrotation
									JOINT right_hand
									{
										OFFSET	110.7	-3.89999	13.6
										CHANNELS 3  Xrotation Yrotation Zrotation
										JOINT right_ee
										{
											OFFSET	80.8	-5.10001	12.1
											CHANNELS 3  Xrotation Yrotation Zrotation
											End Site
											{
												OFFSET	1	0	0
											}
										}
									}
								}
							}
						}
					}
				}
			}
		}
	}
	JOINT left_hip
	{
		OFFSET	-82.8	-127.5	0.300001
		CHANNELS 3  Xrotation Yrotation Zrotation
		JOINT left_knee
		{
			OFFSET	-28.2	-396.7	2.2
			CHANNELS 3  Xrotation Yrotation Zrotation
			JOINT left_ankle
			{
				OFFSET	-11.7	-411.3	35.4
				CHANNELS 3  Xrotation Yrotation Zrotation
				JOINT left_toes
				{
					OFFSET	0	-60	-88.6
					CHANNELS 3  Xrotation Yrotation Zrotation
					JOINT left_foot_ee
					{
						OFFSET	-22.5	-16.5	-42.2
						CHANNELS 3  Xrotation Yrotation Zrotation
						End Site
						{
							OFFSET	1	0	0
						}
					}
				}
			}
		}
	}
	JOINT right_hip
	{
		OFFSET	82.8	-127.5	0.300001
		CHANNELS 3  Xrotation Yrotation Zrotation
		JOINT right_knee
		{
			OFFSET	28.2	-396.7	2.2
			CHANNELS 3  Xrotation Yrotation Zrotation
			JOINT right_ankle
			{
				OFFSET	11.7	-411.3	35.4
				CHANNELS 3  Xrotation Yrotation Zrotation
				JOINT right_toes
				{
					OFFSET	0	-60	-88.6
					CHANNELS 3  Xrotation Yrotation Zrotation
					JOINT right_foot_ee
					{
						OFFSET	22.5	-16.5	-42.2
						CHANNELS 3  Xrotation Yrotation Zrotation
						End Site
						{
							OFFSET	1	0	0
						}
					}
				}
			}
		}
	}
}
MOTION
Frames: 15
Frame Time: 0.02
409.822 728.988 -1323.34 -160.133 -35.491 -171.996 3.24169 0.00239167 1.28044 3.2426 -0.0790838 1.27799 3.24047 -0.275731 1.2504 3.2383 -0.0748095 1.27825 -3.15306 1.02466 -0.66797 -3.1488 2.38281 -0.542964 -0.0 0.0 -0.0 5.27408 14.8632 10.2712 -32.2062 -41.3966 76.1978 0.224501 -6.34602 0.0124456 -50.9091 -4.17869 4.7296 -3.66586 28.6978 -8.59713 -0.0 0.0 -0.0 10.6759 13.7012 -21.2476 20.2368 1.86163 -67.6687 1.1134 28.8778 -0.286686 57.996 1.5988 6.92001 -3.66255 -28.8257 8.50111 0.0 0.0 0.0 32.9113 5.36561 0.556817 -12.79 0.311858 1.93398 -4.8118 30.1711 0.765116 -3.32111 0.0 0.0 -0.0 0.0 -0.0 35.0676 3.81329 5.3154 -28.8203 -0.0874416 -4.37559 11.2548 -28.1513 1.6985 15.8765 -0.0 -0.0 0.0 0.0 0.0 
412.489 728.365 -1320.9 -160.096 -35.9374 -171.755 3.23908 0.0205761 1.19953 3.23988 -0.0557893 1.19841 3.2384 -0.240445 1.17537 3.23647 -0.0518133 1.19859 -2.67617 3.51508 0.470288 -2.66067 6.00633 0.984904 -0.0 0.0 -0.0 5.22728 14.6233 10.1985 -31.8674 -41.0936 76.3291 0.21401 -6.05171 0.0113126 -51.1989 -4.21293 4.74413 -4.05936 28.9995 -10.5597 -0.0 0.0 -0.0 10.9213 14.109 -21.7843 18.6374 1.50518 -67.9741 1.11645 28.9442 -0.288161 57.5556 1.5612 6.87791 -3.10297 -25.3427 7.43223 0.0 0.0 0.0 32.7084 6.25223 0.364457 -12.938 0.312924 1.95666 -1.00896 29.643 0.158732 -3.80288 0.0 0.0 -0.0 0.0 -0.0 35.1016 2.14753 5.3387 -28.3212 -0.104697 -4.30094 12.1383 -28.437 1.83006 15.7531 -0.0 -0.0 0.0 0.0 0.0 
413.794 729.707 -1321.56 -159.8 -36.2916 -171.171 3.26117 0.192762 1.10562 3.26185 0.122023 1.11564 3.26397 -0.0514342 1.12112 3.26224 0.126259 1.11517 -2.95665 1.9783 -1.13711 -2.94217 4.48049 -0.897997 -0.0 0.0 -0.0 5.19382 14.619 10.1435 -31.9053 -40.7014 76.2388 0.255254 -7.2067 0.0160741 -51.8332 -4.28811 4.77533 -3.70066 28.5301 -8.88983 -0.0 0.0 -0.0 10.6492 14.0175 -21.1777 18.1264 1.6788 -67.1507 1.10049 28.5961 -0.280479 60.3458 1.80481 7.13974 -3.53007 -29.0252 7.66104 0.0 0.0 0.0 32.3756 6.88338 0.734258 -10.9088 0.293207 1.64594 -4.03849 30.4175 0.6424 -3.56439 0.0 0.0 -0.0 0.0 -0.0 35.2016 3.72905 4.4711 -28.9573 -0.0825877 -4.39607 11.671 -28.6195 1.76438 16.4364 -0.0 -0.0 0.0 0.0 0.0 
422.699 730.655 -1320.7 -159.899 -36.8535 -170.383 3.28202 0.114563 1.07545 3.28266 0.045901 1.08056 3.28328 -0.120888 1.07476 3.28167 0.0503569 1.08036 -1.65955 2.11386 2.05087 -1.64782 2.17302 2.43315 -0.0 0.0 -0.0 5.18468 15.5519 10.1128 -31.9641 -40.6209 76.4286 0.225727 -6.38038 0.0125814 -48.943 -3.94843 4.62648 -3.47083 28.8681 -7.43355 -0.0 0.0 -0.0 10.5873 13.8701 -21.0444 17.7534 0.91743 -68.4898 1.07071 27.9406 -0.266374 56.6457 1.48457 6.79002 -3.54029 -24.8796 10.197 0.0 0.0 0.0 32.1845 7.01519 0.929498 -11.019 0.294561 1.6628 -5.64367 30.7888 0.902523 -3.00846 0.0 0.0 -0.0 0.0 -0.0 35.3367 0.297843 4.92869 -28.6076 -0.0948739 -4.3438 9.89303 -29.9643 1.51777 16.3534 -0.0 -0.0 0.0 0.0 0.0 
426.596 731.517 -1320.87 -159.772 -37.4394 -169.56 3.35013 0.184244 1.0723 3.35076 0.115642 1.08185 3.35269 -0.0508459 1.08682 3.35107 0.121425 1.08121 -1.70135 3.00081 1.83263 -1.68756 3.94813 2.31608 -0.0 0.0 -0.0 5.11523 17.4818 9.96273 -32.088 -40.8921 75.2339 0.200909 -5.68374 0.00997323 -49.5146 -4.01501 4.65728 -3.47632 28.7579 -7.5288 -0.0 0.0 -0.0 10.8914 13.826 -21.7262 15.5317 0.413262 -69.1151 1.02167 26.8437 -0.243815 56.7342 1.49196 6.79862 -3.51415 -24.3082 10.3865 0.0 0.0 0.0 32.3424 6.8141 0.553163 -10.854 0.292522 1.63756 -5.10497 29.8072 0.810111 -3.488 0.0 0.0 -0.0 0.0 -0.0 34.489 3.33302 4.16049 -28.9789 -0.081821 -4.39928 10.1763 -29.2291 1.55196 16.4816 -0.0 -0.0 0.0 0.0 0.0 
433.007 728.246 -1318.11 -160.481 -37.7782 -169.65 3.3705 0.213575 1.0282 3.37108 0.147719 1.0397 3.37353 -0.0123237 1.05007 3.37202 0.153661 1.03884 -1.37526 3.84874 1.91353 -1.35428 5.38971 2.50024 -0.0 0.0 -0.0 5.00534 18.2729 9.7739 -32.2421 -41.2374 74.2472 0.197741 -5.59471 0.00966198 -49.908 -4.06101 4.67808 -3.35901 27.7986 -7.45266 -0.0 0.0 -0.0 11.504 13.911 -23.1036 13.5156 -0.0600459 -69.7309 0.905345 24.155 -0.193721 56.7963 1.49716 6.80465 -3.47819 -24.0499 10.3311 0.0 0.0 0.0 31.9403 6.43347 0.140353 -12.2805 0.307741 1.85591 -4.06005 27.8539 0.63509 -3.45445 0.0 0.0 -0.0 0.0 -0.0 33.7197 3.33979 4.83097 -29.3538 -0.0682743 -4.45523 10.1775 -28.9031 1.54873 15.9608 -0.0 -0.0 0.0 0.0 0.0 
440.487 729.081 -1316.57 -160.566 -37.3491 -170.136 3.41268 0.249906 1.16985 3.41342 0.174965 1.18338 3.41673 -0.00636803 1.19622 3.41478 0.182619 1.18222 -0.727729 4.70874 2.37001 -0.694593 6.5155 3.06801 -0.0 0.0 -0.0 5.03058 19.2961 9.78836 -31.6573 -40.7643 74.0651 0.1719 -4.86735 0.00730594 -48.7719 -3.92856 4.61713 -2.46492 25.5599 -3.72048 -0.0 0.0 -0.0 11.6486 14.016 -23.4284 12.7796 -0.13845 -68.9528 0.888188 23.7484 -0.186756 58.2681 1.62219 6.94588 -3.82714 -27.9491 9.94522 0.0 0.0 0.0 32.2353 6.29606 0.49155 -13.4364 0.316083 2.03305 -3.9812 28.2327 0.624128 -3.772 0.0 0.0 -0.0 0.0 -0.0 33.4048 4.09225 5.39715 -29.0941 -0.0776971 -4.41648 9.11114 -27.5347 1.3787 15.6745 -0.0 -0.0 0.0 0.0 0.0 
452.539 729.136 -1315.75 -160.42 -37.9378 -169.647 3.51854 0.353154 1.08362 3.51915 0.283489 1.10389 3.52436 0.1151 1.13388 3.52269 0.29272 1.10148 -0.889488 5.88409 0.603945 -0.828282 10.0646 1.32884 -0.0 0.0 -0.0 5.12344 20.3666 9.89774 -31.9927 -40.5683 73.1033 0.195316 -5.52653 0.00942701 -50.2391 -4.09983 4.69535 -2.10546 26.5746 -1.20882 -0.0 0.0 -0.0 11.4707 11.1289 -23.0808 11.1191 -1.22288 -69.9282 0.837954 22.5431 -0.16701 57.2302 1.53363 6.84661 -3.7676 -28.7542 9.11813 0.0 0.0 0.0 32.1232 4.32823 1.28402 -15.2271 0.321945 2.30773 -0.519218 29.2268 0.0813755 -2.62629 0.0 0.0 -0.0 0.0 -0.0 32.5369 4.91667 5.93619 -29.8881 -0.0483368 -4.5348 9.37723 -26.5481 1.40941 13.8678 -0.0 -0.0 0.0 0.0 0.0 
461.445 726.678 -1313.28 -160.97 -37.5015 -169.794 3.60034 0.387721 0.789614 3.60062 0.336692 0.812684 3.60528 0.212491 0.853616 3.60443 0.344633 0.809348 -0.587241 5.59023 0.937985 -0.533968 9.24374 1.63268 -0.0 0.0 -0.0 5.27611 21.2941 10.0913 -30.7839 -41.3449 70.3106 0.203884 -5.76735 0.0102701 -49.4814 -4.01114 4.65551 -2.82195 25.9754 -5.49979 -0.0 0.0 -0.0 11.4142 13.2076 -22.9191 9.22107 -2.01409 -70.1861 0.772626 20.9436 -0.142806 57.2438 1.53478 6.84793 -3.62121 -25.2618 10.4322 0.0 0.0 0.0 32.2809 4.07954 1.13698 -16.8847 0.319719 2.56203 -2.53698 27.4575 0.394784 -3.4048 0.0 0.0 -0.0 0.0 -0.0 32.0223 4.24454 6.30001 -30.0079 -0.0437625 -4.55262 10.0192 -27.3371 1.5101 15.712 -0.0 -0.0 0.0 0.0 0.0 
470.431 726.71 -1318.44 -161.245 -37.6288 -169.657 3.7601 0.438176 0.74582 3.76032 0.389831 0.772189 3.76548 0.273347 0.820684 3.76476 0.399525 0.767219 -0.810888 5.82457 0.332191 -0.746573 10.171 1.02685 -0.0 0.0 -0.0 5.21424 21.4829 9.99346 -29.005 -40.6356 69.0668 0.220528 -6.2346 0.0120101 -50.5364 -4.13478 4.71066 -3.14328 25.9934 -7.29188 -0.0 0.0 -0.0 11.1296 12.9794 -22.284 7.8494 -2.83825 -70.4436 0.726706 19.7983 -0.126821 57.3124 1.54058 6.85453 -3.72339 -25.5435 10.8463 0.0 0.0 0.0 32.113 2.47774 1.69664 -17.522 0.316906 2.65977 -1.84394 27.6015 0.286801 -3.47765 0.0 0.0 -0.0 0.0 -0.0 31.4258 3.8851 7.12843 -29.219 -0.0731855 -4.43513 9.08892 -23.9531 1.34813 15.2758 -0.0 -0.0 0.0 0.0 0.0 
487.297 724.327 -1324.8 -162.452 -37.4546 -170.625 3.71354 0.38391 0.729685 3.71377 0.336701 0.752633 3.71809 0.222965 0.793793 3.71738 0.345529 0.748622 -2.51441 7.25836 -1.72249 -2.39333 14.5047 -0.806822 -0.0 0.0 -0.0 6.78305 23.1557 12.1622 -31.2876 -39.4017 63.1304 0.317599 -8.9412 0.0248316 -51.5145 -4.25029 4.75976 -4.136 28.7511 -11.1415 -0.0 0.0 -0.0 10.7915 9.77461 -21.5762 7.53838 -3.44817 -70.2549 0.77906 21.1027 -0.145115 57.4031 1.54826 6.86326 -5.07831 -27.211 17.5447 0.0 0.0 0.0 32.7189 -2.48642 3.45693 -21.8048 0.26983 3.31507 0.417376 29.2986 -0.065316 -2.03479 0.0 0.0 -0.0 0.0 -0.0 29.7622 5.72028 7.8817 -28.7255 -0.0907682 -4.36143 10.2657 -22.175 1.5044 14.3364 -0.0 -0.0 0.0 0.0 0.0 
503.871 725.592 -1326.41 -162.462 -37.9442 -170.222 3.43387 0.492741 0.654249 3.43399 0.450112 0.684276 3.43934 0.341547 0.74443 3.43886 0.454827 0.681151 -4.20309 7.3095 -2.90921 -4.08698 15.5928 -1.81754 -0.0 0.0 -0.0 6.91476 24.2103 12.2519 -29.99 -40.3275 62.7037 0.334449 -9.40729 0.0275183 -52.0117 -4.30933 4.78396 -3.92755 28.6085 -10.0857 -0.0 0.0 -0.0 10.1418 7.45499 -20.1537 5.20126 -4.03191 -68.987 0.817076 22.0358 -0.159091 56.9076 1.50648 6.81544 -5.21948 -25.9104 19.3462 0.0 0.0 0.0 32.7258 1.94709 3.13314 -22.314 0.260977 3.39272 -1.06241 30.4622 0.168108 -2.44786 0.0 0.0 -0.0 0.0 -0.0 28.8252 6.28271 8.32432 -28.6949 -0.0918369 -4.35685 9.87899 -21.5871 1.44582 14.303 -0.0 -0.0 0.0 0.0 0.0 
515.211 728.285 -1324.77 -162.438 -39.9942 -169.681 3.34925 0.263935 0.66304 3.34947 0.22121 0.67849 3.35201 0.115056 0.704304 3.35139 0.224841 0.677296 -5.28903 7.73773 -5.25702 -5.11293 18.1622 -3.99657 -0.0 0.0 -0.0 7.14944 23.2057 12.6853 -29.3519 -39.89 60.269 0.303147 -8.5405 0.0226355 -52.5724 -4.37614 4.81063 -4.00587 28.5372 -10.562 -0.0 0.0 -0.0 9.63591 2.1682 -18.9846 5.19057 -4.35035 -69.5612 0.900232 24.0341 -0.191634 55.0585 1.35428 6.63386 -5.78196 -26.7393 22.1019 0.0 0.0 0.0 32.0531 -9.48574 6.38938 -22.9636 0.248684 3.49163 1.26697 29.5954 -0.198298 -0.157312 0.0 0.0 -0.0 0.0 -0.0 27.7374 5.69461 9.21853 -29.0466 -0.0794026 -4.40939 6.7387 -21.6251 0.995784 13.5231 -0.0 -0.0 0.0 0.0 0.0 
526.582 722.129 -1327.22 -163.648 -42.1545 -171.094 3.14913 0.0673255 0.78146 3.14947 0.0174643 0.78416 3.14959 -0.105197 0.777268 3.14875 0.0188744 0.784127 -6.4895 8.55924 -3.65164 -6.4109 18.5166 -2.00416 -0.0 0.0 -0.0 7.57702 24.0109 13.212 -31.5088 -43.7221 56.6626 0.334181 -9.39991 0.0274746 -53.643 -4.50443 4.85974 -3.07008 25.9837 -6.8861 -0.0 0.0 -0.0 9.10059 -0.772268 -17.7827 4.89986 -3.29026 -69.2511 0.844555 22.7027 -0.169549 58.4755 1.6401 6.96553 -5.88905 -29.1257 20.7885 0.0 0.0 0.0 33.4433 -13.8888 9.19011 -26.5417 0.160915 4.03364 4.20026 29.8103 -0.653833 0.968419 -0.0 -0.0 -0.0 0.0 -0.0 26.6172 6.52234 10.1698 -29.1843 -0.0744453 -4.42994 2.32957 -27.9562 0.359868 17.4299 -0.0 -0.0 0.0 0.0 0.0 
533.313 719.637 -1334.52 -163.734 -43.0697 -171.61 3.19849 0.141593 0.898443 3.19894 0.0841379 0.905631 3.20011 -0.057503 0.907711 3.19897 0.0865687 0.905402 -6.53916 8.18459 -4.91462 -6.42337 18.7389 -3.3476 -0.0 0.0 -0.0 7.89103 24.8854 13.5497 -30.8175 -42.694 56.1342 0.377204 -10.5842 0.0349398 -53.8631 -4.53092 4.86954 -3.82526 26.2177 -11.0116 -0.0 0.0 -0.0 8.50867 -5.36144 -16.4032 4.82774 -4.05961 -68.7232 0.803535 21.7048 -0.154047 56.7022 1.48929 6.79552 -6.10468 -29.4159 21.811 0.0 0.0 0.0 33.463 -19.8638 11.3175 -26.5523 0.160606 4.03523 8.95143 29.2081 -1.36997 -0.849255 0.0 0.0 -0.0 0.0 -0.0 25.4052 8.94859 10.368 -27.4357 -0.133712 -4.16814 -2.69848 -28.452 -0.422627 20.7256 -0.0 -0.0 0.0 0.0 0.0 
